<?xml version="1.0" encoding="UTF-8"?>
<!DOCTYPE svg PUBLIC "-//W3C//DTD SVG 1.1//EN" "http://www.w3.org/Graphics/SVG/1.1/DTD/svg11.dtd">
<!-- Creator: CorelDRAW X7 -->
<svg xmlns="http://www.w3.org/2000/svg" xml:space="preserve" width="7.5in" height="7.5in" version="1.1" style="shape-rendering:geometricPrecision; text-rendering:geometricPrecision; image-rendering:optimizeQuality; fill-rule:evenodd; clip-rule:evenodd"
viewBox="0 0 7500 7500"
 xmlns:xlink="http://www.w3.org/1999/xlink">
 <defs>
  <style type="text/css">
   <![CDATA[
    .fil2 {fill:none}
    .fil0 {fill:#1A1A1A}
    .fil1 {fill:#3CC8C8}
   ]]>
  </style>
 </defs>
 <g id="Layer_x0020_1">
  <metadata id="CorelCorpID_0Corel-Layer"/>
  <circle class="fil0" cx="3750" cy="3750" r="3100"/>
  <g>
   <path class="fil1" d="M3682 1224c120,-62 267,83 203,202 -37,98 -177,124 -249,50 -76,-72 -51,-213 46,-252l0 0zm-1289 139c73,-30 165,37 158,116 8,86 -97,150 -172,109 -98,-38 -87,-198 14,-225l0 0zm2641 228c-114,-14 -132,-193 -22,-229 85,-42 162,36 175,117 -18,69 -75,132 -153,112l0 0zm-2347 321c122,-77 295,38 277,179 -7,143 -196,226 -303,129 -104,-75 -88,-250 26,-308l0 0zm1858 82c54,-140 274,-145 336,-8 61,106 -14,237 -123,273 -144,27 -281,-129 -213,-265l0 0zm-1018 257c-1,-120 108,-210 222,-218 76,15 159,47 191,124 61,105 7,251 -103,299 -50,28 -109,18 -163,14 -84,-41 -154,-121 -148,-219l1 0zm-1917 175c111,-68 261,57 219,178 -23,104 -164,147 -244,80 -86,-63 -72,-213 25,-258l0 0zm4117 0c95,-73 250,11 239,130 7,109 -128,191 -222,135 -103,-46 -114,-205 -17,-264l0 -1zm-1661 217c156,-56 341,11 430,149 117,170 55,429 -127,526 -188,115 -463,17 -533,-193 -79,-188 36,-423 230,-482l0 0zm-913 18c172,-81 405,-13 488,164 98,171 22,411 -153,500 -175,99 -423,24 -508,-161 -95,-178 -11,-420 173,-503l0 0zm-915 313c13,-111 118,-183 224,-191 115,13 205,104 218,218 -8,114 -96,226 -217,225 -133,12 -250,-121 -224,-252l-1 0zm2702 -166c137,-80 327,36 321,193 9,167 -201,284 -337,186 -141,-81 -130,-310 16,-379l0 0zm-2159 586c160,-44 343,31 421,178 86,148 51,353 -83,462 -171,159 -486,95 -577,-122 -105,-199 22,-466 239,-519l0 1zm1733 -1c155,-45 338,15 421,157 111,162 58,403 -106,508 -173,121 -440,57 -535,-132 -115,-196 1,-474 220,-533l0 0zm-2761 184c138,-52 292,100 235,237 -34,125 -210,171 -301,79 -106,-87 -67,-279 66,-316l0 0zm3744 199c0,-4 0,-8 0,-12 0,-111 86,-203 197,-211 95,15 187,92 179,195 9,136 -155,228 -271,164 -54,-27 -82,-83 -105,-136l0 0zm-4424 -131c84,-37 186,35 167,128 -4,104 -159,144 -215,57 -50,-61 -20,-154 48,-185zm5240 -2c59,-42 153,-12 176,56 39,75 -33,177 -117,165 -118,10 -156,-169 -59,-221l0 0zm-3081 501c219,-57 454,125 456,351 13,227 -218,429 -442,377 -173,-28 -308,-195 -303,-370 0,-166 126,-322 289,-358l0 0zm866 0c223,-62 464,124 461,354 12,223 -213,418 -432,374 -206,-27 -358,-253 -301,-453 29,-134 141,-242 272,-275l0 0zm-1669 139c153,-26 297,145 235,292 -45,155 -272,197 -372,70 -117,-122 -29,-345 137,-361l0 -1zm2539 8c137,-57 306,61 295,210 6,163 -202,276 -336,180 -152,-86 -124,-338 42,-391l-1 1zm711 712c-54,-100 43,-233 154,-214 56,-1 94,42 130,79 7,59 19,130 -30,175 -67,85 -218,61 -254,-40l0 0zm-4070 -186c104,-70 253,33 230,155 -13,107 -148,168 -236,108 -96,-56 -92,-213 6,-263l0 0zm2050 223c135,-60 308,58 295,208 10,165 -203,280 -336,181 -148,-86 -123,-336 41,-389l0 0zm-950 221c116,-61 271,44 261,174 3,106 -101,197 -206,180 -86,-1 -143,-79 -171,-153 1,-81 35,-171 116,-202l0 1zm1923 1c119,-73 288,32 277,171 3,145 -189,237 -299,142 -107,-74 -94,-253 22,-313l0 0zm334 827c-53,-80 9,-177 95,-194 70,13 142,65 128,146 -10,108 -169,141 -222,48l-1 0zm-2653 -69c21,-64 72,-127 147,-110 108,8 141,172 45,222 -85,58 -185,-21 -192,-112l0 0zm1280 72c21,-93 142,-138 222,-89 53,23 69,82 82,132 -7,26 -14,53 -20,79 -33,39 -75,77 -129,76 -102,12 -193,-103 -155,-198l0 0zm0 0l0 0 0 0z"/>
  </g>
  <rect class="fil2" width="7500" height="7500"/>
 </g>
</svg>
