<svg id="Layer_1" data-name="Layer 1" xmlns="http://www.w3.org/2000/svg" xmlns:xlink="http://www.w3.org/1999/xlink" width="7.5in" height="7.5in" viewBox="0 0 540 540">
  <defs>
    <linearGradient id="linear-gradient" x1="124.45" y1="257.6" x2="429.54" y2="257.6" gradientTransform="matrix(1, 0, 0, -1, 0, 542)" gradientUnits="userSpaceOnUse">
      <stop offset="0" stop-color="#9d4abe"/>
      <stop offset="0.03" stop-color="#9055c4"/>
      <stop offset="0.15" stop-color="#6b74d6"/>
      <stop offset="0.26" stop-color="#4c8fe5"/>
      <stop offset="0.39" stop-color="#34a3f0"/>
      <stop offset="0.52" stop-color="#22b2f9"/>
      <stop offset="0.66" stop-color="#18bafd"/>
      <stop offset="0.83" stop-color="#15bdff"/>
      <stop offset="1" stop-color="#28bad5"/>
    </linearGradient>
  </defs>
  <title>VeChain</title>
  <circle cx="269.78" cy="266.47" r="223.2" style="fill: #1a1a1a"/>
  <g>
    <path d="M255.61,415.43L125.13,149.65a6.44,6.44,0,0,1,5.77-9.25h45.21a6.49,6.49,0,0,1,5.77,3.49L277.16,336.7a23.14,23.14,0,0,0,41.57,0l95-192.66a6.48,6.48,0,0,1,5.77-3.49h5.61a4.37,4.37,0,0,1,3.94,6.37L297.19,415.43A23.14,23.14,0,0,1,255.61,415.43Z" style="fill: url(#linear-gradient)"/>
    <g>
      <path d="M255.61,415.43L181.87,144a6.27,6.27,0,0,0-5.46-3.49H131a6.45,6.45,0,0,0-5.92,9.25Z" style="fill: #fff;opacity: 0.100000001490116;isolation: isolate"/>
      <path d="M277.16,336.85l-152-187.2a6.53,6.53,0,0,1,5.16-9.25h46a6.82,6.82,0,0,1,5.46,3.49Z" style="fill: #fff;opacity: 0.100000001490116;isolation: isolate"/>
    </g>
  </g>
</svg>
