<?xml version="1.0" encoding="UTF-8"?>
<!DOCTYPE svg PUBLIC "-//W3C//DTD SVG 1.1//EN" "http://www.w3.org/Graphics/SVG/1.1/DTD/svg11.dtd">
<!-- Creator: CorelDRAW X7 -->
<svg xmlns="http://www.w3.org/2000/svg" xml:space="preserve" width="10in" height="10in" version="1.1" style="shape-rendering:geometricPrecision; text-rendering:geometricPrecision; image-rendering:optimizeQuality; fill-rule:evenodd; clip-rule:evenodd"
viewBox="0 0 10000 10000"
 xmlns:xlink="http://www.w3.org/1999/xlink"
 data-name="Layer 1">
 <defs>
  <style type="text/css">
   <![CDATA[
    .fil0 {fill:none}
    .fil3 {fill:#5B6A72;fill-rule:nonzero}
    .fil6 {fill:#979797;fill-rule:nonzero}
    .fil4 {fill:#DCF2F9;fill-rule:nonzero}
    .fil1 {fill:#ED8117;fill-rule:nonzero}
    .fil2 {fill:#EEBB18;fill-rule:nonzero}
    .fil5 {fill:#FEFEFE;fill-rule:nonzero}
   ]]>
  </style>
 </defs>
 <g id="Layer_x0020_1">
  <metadata id="CorelCorpID_0Corel-Layer"/>
  <rect class="fil0" x="1250" y="1250" width="7500" height="7500"/>
  <g id="_1966369961312">
   <path class="fil1" d="M3913 6817c296,210 839,-52 1224,-585 5,-7 11,-14 16,-21 212,-303 139,-721 -163,-935 -301,-214 -717,-142 -928,161 -5,7 -10,15 -14,22 -369,545 -431,1148 -135,1358z"/>
   <path class="fil2" d="M4216 6414c206,142 586,-39 857,-406 4,-5 8,-9 12,-14 147,-204 101,-487 -102,-634 -3,-2 -5,-4 -8,-6 -210,-146 -501,-95 -650,113 -4,6 -7,11 -10,16 -260,374 -306,788 -99,931z"/>
   <path class="fil3" d="M2936 4682c-31,40 -46,100 38,74 241,-75 787,-162 1421,277 856,594 787,-945 787,-945 -204,-141 -1227,-712 -2246,594z"/>
   <path class="fil3" d="M6191 7002c3,87 55,53 81,11 882,-1377 4,-2136 -196,-2277 0,0 -1462,445 -620,1041 623,442 724,977 735,1225z"/>
   <path class="fil4" d="M5301 6011c167,123 269,144 390,-7 122,-150 760,-899 1399,-1725 638,-826 249,-2248 172,-2304l-1 1 1 -2c-77,-56 -1485,38 -2012,946 -526,909 -984,1792 -1078,1962 -94,171 -41,264 126,388 76,56 290,214 501,370 212,156 426,315 502,371z"/>
   <g>
    <path class="fil3" d="M7193 2066c-138,0 -439,29 -779,133 -368,112 -863,339 -1131,781 -431,712 -821,1416 -1009,1754 -51,93 -89,160 -110,196 -44,78 -39,116 -31,139 15,38 59,81 138,137l182 130 339 239 13 9c215,152 430,305 508,360 163,115 211,104 293,8 27,-32 78,-90 147,-170 254,-292 782,-898 1304,-1545 325,-402 371,-947 352,-1334 -20,-419 -119,-752 -159,-835 -19,-1 -38,-2 -57,-2l0 0zm-1703 4127l-7 0c-77,-2 -156,-36 -266,-114 -78,-55 -293,-207 -508,-360l-13 -8 -338 -240 -183 -129c-110,-78 -169,-142 -196,-213 -43,-112 3,-214 42,-281 20,-36 57,-102 108,-195 188,-339 580,-1044 1012,-1759 156,-257 394,-473 708,-642 166,-89 443,-212 820,-290 149,-31 302,-52 431,-59 197,-11 232,14 249,25l1 2c17,12 52,40 107,226 36,124 68,277 89,429 58,417 89,1201 -359,1756 -524,650 -1054,1258 -1308,1550 -70,79 -120,137 -146,168 -38,45 -76,77 -114,100 -40,22 -84,34 -129,34z"/>
   </g>
   <path class="fil5" d="M5817 3973c266,188 635,125 823,-142 187,-267 123,-635 -143,-824 -267,-188 -635,-124 -823,143 -188,267 -124,635 143,823z"/>
   <path class="fil3" d="M6158 2983c-30,0 -59,2 -88,7 -133,23 -251,98 -328,208 -161,229 -106,546 123,707 229,162 545,107 706,-122 0,0 0,0 1,0 161,-229 106,-546 -123,-707 -85,-61 -187,-93 -291,-93zm-2 1182c-373,-1 -674,-304 -673,-677 0,-138 43,-273 123,-386 214,-304 634,-377 938,-163 0,0 1,0 1,0 304,215 377,636 163,940 -103,146 -260,246 -436,276 -38,6 -77,10 -116,10z"/>
   <polygon class="fil6" points="2421,8045 3486,6831 3549,6886 2484,8100 "/>
   <polygon class="fil6" points="2961,7877 3583,7167 3645,7222 3023,7932 "/>
  </g>
 </g>
</svg>
