<svg id="Layer_1" data-name="Layer 1" xmlns="http://www.w3.org/2000/svg" viewBox="0 0 540 540"><defs><style>.cls-1{fill:#ccc;}</style></defs><title>xrp</title><circle class="cls-1" cx="269.78" cy="266.47" r="223.2"/><path d="M109.6,136.38h47.3c16.68,16.77,33.67,33.21,50.37,50,7.24,6.84,14.13,14,21.24,21a57.86,57.86,0,0,0,64.57,12.79,59.94,59.94,0,0,0,17.42-11.73c3.33-3.61,7-6.91,10.38-10.47,3.83-3.65,7.38-7.59,11.33-11.11,5.48-5.38,10.76-11,16.39-16.2,11.3-11.41,22.85-22.57,34.15-34l.57-.28h47c-5.56,5.45-10.93,11.11-16.63,16.41-13.51,13.61-27.24,27-40.76,40.58-6.47,6-12.44,12.53-18.89,18.56q-10.82,10.82-21.72,21.56a89.35,89.35,0,0,1-23.88,16.1c-27.16,12.76-60.66,10.92-86.17-4.93a94.58,94.58,0,0,1-19.49-16c-6.44-6.22-12.56-12.76-19.13-18.83-4.76-4.67-9.31-9.54-14.2-14.05-5.25-5.27-10.45-10.59-15.85-15.71C139,165.44,124.25,151,109.6,136.38Z"/><path d="M252.16,282a119.65,119.65,0,0,1,15.17-1.79,48.34,48.34,0,0,1,8.48.29A90.19,90.19,0,0,1,334,306.48c5,5,10.09,9.89,15.06,14.92,4.71,4.9,9.78,9.43,14.49,14.31,5.18,5.31,10.62,10.35,15.82,15.64,12,12.06,24.2,23.92,36.19,36,5.64,5.25,11,10.81,16.44,16.28H384.81c-12-11.81-24-23.67-35.86-35.67-6.49-5.78-12.22-12.38-18.68-18.19q-7.62-7.68-15.31-15.29c-4.32-4.39-8.67-8.87-14-12a57.59,57.59,0,0,0-70.31,6.45c-7,7-14,13.88-20.94,20.87-6.44,5.88-12.26,12.39-18.69,18.27q-17.81,17.9-35.84,35.6H108c3.65-3.82,7.49-7.43,11.13-11.25,7.51-7,14.43-14.53,21.92-21.51,19.1-19.2,38.49-38.11,57.66-57.24,3.88-3.61,7.45-7.53,11.42-11A90.57,90.57,0,0,1,252.16,282Z"/></svg>